<svg id="visual" viewBox="0 0 450 960" width="450" height="960" xmlns="http://www.w3.org/2000/svg" xmlns:xlink="http://www.w3.org/1999/xlink" version="1.1"><rect x="0" y="0" width="450" height="960" fill="#001220"></rect><defs><linearGradient id="grad1_0" x1="0%" y1="100%" x2="100%" y2="0%"><stop offset="30%" stop-color="#001220" stop-opacity="1"></stop><stop offset="70%" stop-color="#001220" stop-opacity="1"></stop></linearGradient></defs><defs><linearGradient id="grad2_0" x1="0%" y1="100%" x2="100%" y2="0%"><stop offset="30%" stop-color="#001220" stop-opacity="1"></stop><stop offset="70%" stop-color="#001220" stop-opacity="1"></stop></linearGradient></defs><g transform="translate(450, 960)"><path d="M-157.5 0C-155.3 -20.6 -153 -41.2 -145.5 -60.3C-138 -79.3 -125.2 -96.8 -109.6 -109.6C-94 -122.4 -75.7 -130.5 -57 -137.7C-38.3 -144.9 -19.1 -151.2 0 -157.5L0 0Z" fill="#9D76D6"></path></g><g transform="translate(0, 0)"><path d="M157.5 0C153.9 20.4 150.2 40.8 142.3 58.9C134.3 77.1 122.1 93.1 108.2 108.2C94.2 123.3 78.6 137.4 60.3 145.5C42 153.6 21 155.5 0 157.5L0 0Z" fill="#9D76D6"></path></g></svg>