<svg id="visual" viewBox="0 0 960 540" width="960" height="540" xmlns="http://www.w3.org/2000/svg" xmlns:xlink="http://www.w3.org/1999/xlink" version="1.1"><rect x="0" y="0" width="960" height="540" fill="#001220"></rect><defs><linearGradient id="grad1_0" x1="43.8%" y1="0%" x2="100%" y2="100%"><stop offset="14.444444444444446%" stop-color="#001220" stop-opacity="1"></stop><stop offset="85.55555555555554%" stop-color="#001220" stop-opacity="1"></stop></linearGradient></defs><defs><linearGradient id="grad2_0" x1="0%" y1="0%" x2="56.3%" y2="100%"><stop offset="14.444444444444446%" stop-color="#001220" stop-opacity="1"></stop><stop offset="85.55555555555554%" stop-color="#001220" stop-opacity="1"></stop></linearGradient></defs><g transform="translate(960, 0)"><path d="M0 216C-38.7 210.9 -77.5 205.8 -108 187.1C-138.5 168.3 -160.9 135.9 -177.5 102.5C-194.2 69.1 -205.1 34.5 -216 0L0 0Z" fill="#9d76d6"></path></g><g transform="translate(0, 540)"><path d="M0 -216C34.5 -205.1 69.1 -194.2 102.5 -177.5C135.9 -160.9 168.3 -138.5 187.1 -108C205.8 -77.5 210.9 -38.7 216 0L0 0Z" fill="#9d76d6"></path></g></svg>